<?xml version="1.0" standalone="no"?>
<svg xmlns:xlink="http://www.w3.org/1999/xlink" id="wave" style="transform:rotate(0deg); transition: 0.3s" viewBox="0 0 1440 110" version="1.1" xmlns="http://www.w3.org/2000/svg"><defs><linearGradient id="sw-gradient-0" x1="0" x2="0" y1="1" y2="0"><stop stop-color="rgba(3, 5, 63, 1)" offset="0%"/><stop stop-color="rgba(3, 5, 63, 1)" offset="100%"/></linearGradient></defs><path style="transform:translate(0, 0px); opacity:1" fill="url(#sw-gradient-0)" d="M0,66L80,55C160,44,320,22,480,25.7C640,29,800,59,960,64.2C1120,70,1280,51,1440,38.5C1600,26,1760,18,1920,12.8C2080,7,2240,4,2400,11C2560,18,2720,37,2880,42.2C3040,48,3200,40,3360,38.5C3520,37,3680,40,3840,51.3C4000,62,4160,81,4320,89.8C4480,99,4640,99,4800,95.3C4960,92,5120,84,5280,73.3C5440,62,5600,48,5760,44C5920,40,6080,48,6240,53.2C6400,59,6560,62,6720,60.5C6880,59,7040,51,7200,40.3C7360,29,7520,15,7680,14.7C7840,15,8000,29,8160,44C8320,59,8480,73,8640,71.5C8800,70,8960,51,9120,36.7C9280,22,9440,11,9600,18.3C9760,26,9920,51,10080,62.3C10240,73,10400,70,10560,58.7C10720,48,10880,29,11040,22C11200,15,11360,18,11440,20.2L11520,22L11520,110L11440,110C11360,110,11200,110,11040,110C10880,110,10720,110,10560,110C10400,110,10240,110,10080,110C9920,110,9760,110,9600,110C9440,110,9280,110,9120,110C8960,110,8800,110,8640,110C8480,110,8320,110,8160,110C8000,110,7840,110,7680,110C7520,110,7360,110,7200,110C7040,110,6880,110,6720,110C6560,110,6400,110,6240,110C6080,110,5920,110,5760,110C5600,110,5440,110,5280,110C5120,110,4960,110,4800,110C4640,110,4480,110,4320,110C4160,110,4000,110,3840,110C3680,110,3520,110,3360,110C3200,110,3040,110,2880,110C2720,110,2560,110,2400,110C2240,110,2080,110,1920,110C1760,110,1600,110,1440,110C1280,110,1120,110,960,110C800,110,640,110,480,110C320,110,160,110,80,110L0,110Z"/></svg>